HIERARCHY
ROOT SimulationBone
{
	OFFSET 0.000000 0.000000 0.000000
	CHANNELS 6 Xposition Yposition Zposition Zrotation Yrotation Xrotation 
	JOINT Hips
	{
		OFFSET 0.000000 0.000000 0.000000
		CHANNELS 6 Xposition Yposition Zposition Zrotation Yrotation Xrotation 
		JOINT LeftUpLeg
		{
			OFFSET 0.103454 1.857841 10.548502
			CHANNELS 3 Zrotation Yrotation Xrotation
			JOINT LeftLeg
			{
				OFFSET 43.500000 -0.000034 -0.000004
				CHANNELS 3 Zrotation Yrotation Xrotation
				JOINT LeftFoot
				{
					OFFSET 42.372192 0.000027 -0.000002
					CHANNELS 3 Zrotation Yrotation Xrotation
					JOINT LeftToe
					{
						OFFSET 17.300003 0.000001 0.000001
						CHANNELS 3 Zrotation Yrotation Xrotation
						End Site
						{
							OFFSET 0.000000 0.000000 0.000000
						}
					}
				}
			}
		}
		JOINT RightUpLeg
		{
			OFFSET 0.103461 1.857837 -10.548502
			CHANNELS 3 Zrotation Yrotation Xrotation
			JOINT RightLeg
			{
				OFFSET 43.500046 -0.000034 0.000013
				CHANNELS 3 Zrotation Yrotation Xrotation
				JOINT RightFoot
				{
					OFFSET 42.372261 0.000004 0.000013
					CHANNELS 3 Zrotation Yrotation Xrotation
					JOINT RightToe
					{
						OFFSET 17.299986 -0.000008 0.000013
						CHANNELS 3 Zrotation Yrotation Xrotation
						End Site
						{
							OFFSET 0.000000 0.000000 0.000000
						}
					}
				}
			}
		}
		JOINT Spine
		{
			OFFSET 6.901964 -2.603740 0.000003
			CHANNELS 3 Zrotation Yrotation Xrotation
			JOINT Spine1
			{
				OFFSET 12.588108 0.000020 -0.000003
				CHANNELS 3 Zrotation Yrotation Xrotation
				JOINT Spine2
				{
					OFFSET 12.343194 -0.000020 0.000000
					CHANNELS 3 Zrotation Yrotation Xrotation
					JOINT Neck
					{
						OFFSET 25.832893 -0.000004 0.000001
						CHANNELS 3 Zrotation Yrotation Xrotation
						JOINT Head
						{
							OFFSET 11.766617 0.000023 0.000000
							CHANNELS 3 Zrotation Yrotation Xrotation
							End Site
							{
								OFFSET 0.000000 0.000000 0.000000
							}
						}
					}
					JOINT LeftShoulder
					{
						OFFSET 19.745911 -1.480362 6.000106
						CHANNELS 3 Zrotation Yrotation Xrotation
						JOINT LeftArm
						{
							OFFSET 11.284124 -0.000010 -0.000029
							CHANNELS 3 Zrotation Yrotation Xrotation
							JOINT LeftForeArm
							{
								OFFSET 33.000050 0.000006 0.000043
								CHANNELS 3 Zrotation Yrotation Xrotation
								JOINT LeftHand
								{
									OFFSET 25.200006 0.000015 0.000002
									CHANNELS 3 Zrotation Yrotation Xrotation
									End Site
									{
										OFFSET 0.000000 0.000000 0.000000
									}
								}
							}
						}
					}
					JOINT RightShoulder
					{
						OFFSET 19.746103 -1.480366 -6.000076
						CHANNELS 3 Zrotation Yrotation Xrotation
						JOINT RightArm
						{
							OFFSET 11.284135 -0.000031 -0.000006
							CHANNELS 3 Zrotation Yrotation Xrotation
							JOINT RightForeArm
							{
								OFFSET 33.000095 0.000024 0.000006
								CHANNELS 3 Zrotation Yrotation Xrotation
								JOINT RightHand
								{
									OFFSET 25.199774 0.000153 0.000421
									CHANNELS 3 Zrotation Yrotation Xrotation
									End Site
									{
										OFFSET 0.000000 0.000000 0.000000
									}
								}
							}
						}
					}
				}
			}
		}
	}
}
MOTION
Frames: 11
Frame Time: 0.033333
-289.833987 0.000000 523.371910 0.000000 45.857324 0.000000 -2.557714 86.257492 -0.254601 94.045289 -2.137559 -175.211122 161.967568 -17.715702 -177.302900 -32.099495 -3.611796 -3.755781 72.199444 -0.497740 -10.389971 21.454560 0.003083 0.000015 165.348348 9.408094 171.481052 -41.625147 3.293562 1.649363 89.496454 0.080600 8.037415 21.454553 -0.003095 0.000000 10.624126 0.664210 -1.147728 11.222284 1.436678 -2.225675 10.904361 1.423074 -2.234316 14.999674 -7.262296 -21.641900 -23.620423 14.902243 -29.598550 -172.509992 -73.094656 -9.090736 12.914155 60.350677 25.270262 -69.404851 -18.048143 2.715703 0.525469 -9.171726 36.784291 -174.655204 75.094884 6.946341 -20.119675 -54.893718 -14.302432 -83.614759 9.409639 -2.681948 -7.230122 0.582923 -60.201554 
-289.913845 0.000000 523.507230 0.000000 45.895303 0.000000 -2.525319 86.400436 -0.339517 94.132181 -1.815192 -175.728684 162.226459 -17.936210 -178.244660 -38.691598 -3.326779 -1.899015 73.196241 -1.550619 -9.659141 21.454560 0.003109 0.000015 165.593224 9.108703 171.460588 -41.004986 3.051667 1.439657 90.046707 0.348143 9.040157 21.454558 -0.003099 -0.000002 10.522811 0.685096 -1.080142 11.020221 1.470012 -2.090197 10.702247 1.457232 -2.099034 15.831538 -6.947963 -21.568892 -23.900488 14.596674 -29.412663 -171.668199 -73.126628 -9.955002 17.303681 61.191986 26.943478 -74.203947 -15.553958 2.743357 -0.888851 -8.482724 39.436044 -175.737106 74.979440 5.837922 -19.336781 -52.561902 -15.900084 -80.918870 10.659835 -2.651855 -4.581386 0.888664 -59.146358 
-290.091159 0.000000 523.500645 0.000000 45.965871 0.000000 -2.368157 86.236183 -0.465636 94.502988 -0.960743 -176.434411 163.378193 -17.916703 -177.542038 -44.561069 -2.604881 -2.392090 75.297173 -1.486676 -11.237132 21.454557 0.003113 0.000019 165.859246 8.857304 171.095337 -40.913383 3.747655 0.960020 91.019722 0.801894 10.488045 21.454555 -0.003101 -0.000002 10.485623 0.852581 -1.031076 10.944228 1.798919 -1.977020 10.626162 1.786811 -1.987848 16.195137 -6.548166 -21.245850 -24.081932 14.093751 -28.873409 -172.110098 -72.811804 -9.499931 21.244916 61.856188 28.515569 -77.793293 -13.323250 2.741299 -2.984913 -8.213274 43.367579 -175.017204 74.811410 6.573197 -19.164654 -50.610739 -16.739400 -78.943340 11.714715 -2.640158 -1.696665 0.309782 -60.845900 
-290.366527 0.000000 523.332484 0.000000 46.086969 0.000000 -2.200391 86.133980 -0.370707 94.840071 -0.349962 -177.463960 165.393099 -18.077294 -177.447959 -47.273515 -2.778680 -3.888213 75.878347 -0.883913 -13.140811 21.454557 0.003104 0.000018 166.142070 8.948811 171.613380 -40.564350 4.043030 -0.110044 91.022530 1.669984 11.382988 21.454553 -0.003090 0.000001 10.484602 0.974396 -1.061794 10.939997 2.044878 -2.026915 10.621893 2.032458 -2.039235 16.074007 -6.106024 -20.505179 -24.077093 13.394019 -27.787195 -171.393980 -72.461798 -10.234204 22.988130 62.561589 30.017776 -79.966140 -12.228509 2.759099 -4.072233 -8.082984 46.664177 -174.719422 74.903761 6.878835 -18.735197 -49.574725 -16.691702 -77.536547 12.472409 -2.632656 0.175596 -0.484568 -62.833246 
-290.737832 0.000000 523.000815 0.000000 46.220983 0.000000 -2.025181 86.246490 -0.194973 94.750139 0.238260 -178.139868 166.603450 -18.242488 -177.585069 -46.767019 -3.480886 -5.635143 75.934321 0.006215 -14.587939 21.454553 0.003108 0.000021 166.567728 8.981014 171.194935 -39.200491 5.064300 -0.136052 89.539702 1.546384 9.784368 21.454551 -0.003094 0.000001 10.414661 1.085167 -1.172759 10.796338 2.275073 -2.239443 10.478246 2.261377 -2.253152 15.678942 -4.947311 -19.588788 -23.924464 12.077293 -26.208174 -171.333397 -72.747102 -10.297489 23.282059 63.330088 30.904147 -81.115067 -11.556943 2.762269 -5.264650 -7.830822 49.949317 -174.468740 74.712878 7.133818 -17.715890 -49.178793 -16.596559 -76.510789 13.055831 -2.629549 0.609419 0.262135 -63.462231 
-291.197229 0.000000 522.500657 0.000000 46.326837 0.000000 -1.914584 86.468140 -0.201111 94.607186 0.882527 -178.414751 166.455822 -18.716901 -178.617780 -47.071099 -3.517369 -5.737859 75.653566 -0.131813 -15.222967 21.454555 0.003114 0.000017 167.327094 9.165696 171.559927 -37.275290 5.580713 -0.275457 87.776824 1.511734 8.295645 21.454545 -0.003082 0.000002 10.419226 1.247663 -1.301587 10.800058 2.611392 -2.481507 10.481933 2.596228 -2.497240 15.118395 -4.535151 -18.693490 -24.194483 11.521832 -25.059230 -171.839309 -72.868741 -9.778344 21.200952 63.360810 30.926267 -81.446318 -11.261375 2.759284 -6.707743 -7.871660 50.656508 -172.742615 74.528210 8.900405 -16.216570 -49.735412 -15.685511 -76.459514 13.262815 -2.641878 0.806886 0.329343 -62.703835 
-291.738206 0.000000 521.850520 0.000000 46.365998 0.000000 -2.170723 87.004829 -0.363764 93.606486 0.878423 -178.004497 163.214159 -19.472596 179.889738 -50.007585 -3.799736 -3.587701 72.428460 -1.800381 -14.106910 21.454560 0.003109 0.000019 167.779007 10.319602 173.495752 -34.266093 5.234057 -0.899217 85.590760 2.073155 8.099886 21.454551 -0.003093 0.000001 10.340380 1.340022 -1.522320 10.635236 2.814322 -2.915714 10.317174 2.796533 -2.932666 14.646412 -4.842236 -18.096361 -24.158534 11.708561 -24.522496 -173.589681 -72.721816 -7.979629 17.153011 62.628566 29.207634 -81.806631 -11.089680 2.754105 -7.213849 -7.324819 50.855147 -170.977393 73.810562 10.706582 -14.624072 -49.915371 -15.159981 -76.141344 13.208002 -2.624426 -0.021327 2.108215 -59.637605 
-292.352004 0.000000 521.076192 0.000000 46.312269 0.000000 -2.655689 87.564651 -0.839599 92.220978 -0.139120 -178.291171 159.295270 -19.574914 176.729068 -53.739461 -2.880343 -0.444894 69.433449 -4.515190 -13.983743 21.454558 0.003121 0.000015 167.512712 13.530193 176.312809 -31.363419 5.389264 -2.925602 84.032302 3.979154 9.787059 21.454553 -0.003091 -0.000000 10.302210 1.152932 -1.619564 10.560498 2.448900 -3.127706 10.242621 2.429841 -3.142425 13.998858 -4.503964 -17.172742 -24.380534 11.248694 -23.375663 -174.928617 -73.417307 -6.610831 13.572079 62.175847 27.456339 -82.802458 -10.353772 2.752011 -8.074375 -6.789076 52.044710 -171.950791 73.261388 9.705817 -12.774025 -50.006981 -15.411316 -75.826096 13.351240 -2.620995 -1.426369 4.767388 -55.657637 
-293.030246 0.000000 520.195972 0.000000 46.180727 0.000000 -3.405368 87.645500 -1.248088 90.402761 -1.296468 179.510800 155.664765 -20.764894 174.781085 -57.081042 -3.001037 3.019761 68.543674 -6.829207 -12.874177 21.454560 0.003098 0.000021 164.234726 17.498398 179.205258 -31.927385 5.479735 -7.134987 85.353985 8.445777 17.377238 21.454548 -0.003088 0.000001 10.355000 0.874727 -1.355739 10.677094 1.870885 -2.625217 10.359203 1.854871 -2.636467 12.106223 -4.820006 -16.229279 -24.382968 10.806193 -22.233420 -175.619900 -73.143663 -5.898719 9.824102 60.488538 24.652629 -85.505793 -8.732764 2.757842 -7.820719 -6.452463 52.158487 -173.407001 73.610759 8.213464 -12.281313 -49.503384 -15.220566 -76.341229 12.868218 -2.609156 -3.067602 6.636710 -51.300803 
-293.760770 0.000000 519.239344 0.000000 46.024957 0.000000 -4.235302 87.065361 -1.419571 89.161885 -2.415550 176.276161 153.714582 -22.192702 175.785409 -56.793532 -3.989047 2.916302 70.065829 -6.215836 -11.982629 21.454551 0.003112 0.000019 159.049479 20.281909 178.730382 -35.721606 5.100205 -9.967147 86.427356 11.663079 23.781156 21.454553 -0.003095 0.000000 10.646492 0.447817 -1.058142 11.271567 0.996683 -2.067612 10.953638 0.984044 -2.073603 10.470454 -5.296428 -15.033229 -26.008529 10.896286 -21.306352 -175.756108 -72.676198 -5.753978 7.869325 58.229460 20.250582 -89.949766 -5.511202 2.729955 -8.380175 -5.566033 50.840069 -177.268025 74.524618 4.265041 -13.732179 -48.758238 -13.914636 -77.189368 12.154199 -2.595467 -4.442696 8.251381 -48.917005 
-294.525276 0.000000 518.243876 0.000000 45.878109 0.000000 -4.888546 85.575447 -1.161893 89.470945 -2.969333 173.906880 153.656034 -23.930408 177.576531 -52.998245 -3.720401 -1.347443 71.447057 -2.780377 -11.557407 21.454558 0.003114 0.000019 154.626522 21.139295 176.141331 -43.392127 3.987897 -7.935363 84.529485 10.033656 20.923509 21.454545 -0.003089 0.000001 11.393709 0.112525 -0.977622 12.771788 0.332430 -1.936773 12.453880 0.320597 -1.938758 7.864801 -7.291461 -13.938870 -26.524831 12.273077 -21.136871 -175.287584 -72.493695 -6.233366 5.001740 56.259657 15.163524 -95.011852 -2.704849 2.760207 -8.672190 -5.590890 50.118057 177.797993 76.310712 -0.750071 -16.533424 -49.156243 -9.339264 -79.746372 11.217934 -2.640088 -5.458836 6.654883 -49.530374 
